<svg preserveAspectRatio="none" width="100%" height="100%" overflow="visible" style="display: block;" viewBox="0 0 20 20" fill="none" xmlns="http://www.w3.org/2000/svg">
<g id="material-symbols:trophy-rounded">
<path id="Vector" d="M5.33333 8.5V5.33333H3.66667V6.16667C3.66667 6.69444 3.81944 7.17028 4.125 7.59417C4.43056 8.01806 4.83333 8.32 5.33333 8.5ZM13.6667 8.5C14.1667 8.31944 14.5694 8.01722 14.875 7.59333C15.1806 7.16944 15.3333 6.69389 15.3333 6.16667V5.33333H13.6667V8.5ZM8.66667 15.3333V12.75C7.98611 12.5972 7.37861 12.3092 6.84417 11.8858C6.30972 11.4625 5.91722 10.9311 5.66667 10.2917C4.625 10.1667 3.75361 9.71194 3.0525 8.9275C2.35139 8.14306 2.00056 7.22278 2 6.16667V5.33333C2 4.875 2.16333 4.48278 2.49 4.15667C2.81667 3.83056 3.20889 3.66722 3.66667 3.66667H5.33333C5.33333 3.20833 5.49667 2.81611 5.82333 2.49C6.15 2.16389 6.54222 2.00056 7 2H12C12.4583 2 12.8508 2.16333 13.1775 2.49C13.5042 2.81667 13.6672 3.20889 13.6667 3.66667H15.3333C15.7917 3.66667 16.1842 3.83 16.5108 4.15667C16.8375 4.48333 17.0006 4.87556 17 5.33333V6.16667C17 7.22222 16.6492 8.1425 15.9475 8.9275C15.2458 9.7125 14.3744 10.1672 13.3333 10.2917C13.0833 10.9306 12.6911 11.4619 12.1567 11.8858C11.6222 12.3097 11.0144 12.5978 10.3333 12.75V15.3333H12.8333C13.0694 15.3333 13.2675 15.4133 13.4275 15.5733C13.5875 15.7333 13.6672 15.9311 13.6667 16.1667C13.6661 16.4022 13.5861 16.6003 13.4267 16.7608C13.2672 16.9214 13.0694 17.0011 12.8333 17H6.16667C5.93056 17 5.73278 16.92 5.57333 16.76C5.41389 16.6 5.33389 16.4022 5.33333 16.1667C5.33278 15.9311 5.41278 15.7333 5.57333 15.5733C5.73389 15.4133 5.93167 15.3333 6.16667 15.3333H8.66667Z" fill="var(--fill-0, #7A19C4)"/>
</g>
</svg>
