<svg preserveAspectRatio="none" width="100%" height="100%" overflow="visible" style="display: block;" viewBox="0 0 20 20" fill="none" xmlns="http://www.w3.org/2000/svg">
<g id="material-symbols:trophy-rounded">
<path id="Vector" d="M5.83333 9V5.83333H4.16667V6.66667C4.16667 7.19444 4.31944 7.67028 4.625 8.09417C4.93056 8.51806 5.33333 8.82 5.83333 9ZM14.1667 9C14.6667 8.81944 15.0694 8.51722 15.375 8.09333C15.6806 7.66944 15.8333 7.19389 15.8333 6.66667V5.83333H14.1667V9ZM9.16667 15.8333V13.25C8.48611 13.0972 7.87861 12.8092 7.34417 12.3858C6.80972 11.9625 6.41722 11.4311 6.16667 10.7917C5.125 10.6667 4.25361 10.2119 3.5525 9.4275C2.85139 8.64306 2.50056 7.72278 2.5 6.66667V5.83333C2.5 5.375 2.66333 4.98278 2.99 4.65667C3.31667 4.33056 3.70889 4.16722 4.16667 4.16667H5.83333C5.83333 3.70833 5.99667 3.31611 6.32333 2.99C6.65 2.66389 7.04222 2.50056 7.5 2.5H12.5C12.9583 2.5 13.3508 2.66333 13.6775 2.99C14.0042 3.31667 14.1672 3.70889 14.1667 4.16667H15.8333C16.2917 4.16667 16.6842 4.33 17.0108 4.65667C17.3375 4.98333 17.5006 5.37556 17.5 5.83333V6.66667C17.5 7.72222 17.1492 8.6425 16.4475 9.4275C15.7458 10.2125 14.8744 10.6672 13.8333 10.7917C13.5833 11.4306 13.1911 11.9619 12.6567 12.3858C12.1222 12.8097 11.5144 13.0978 10.8333 13.25V15.8333H13.3333C13.5694 15.8333 13.7675 15.9133 13.9275 16.0733C14.0875 16.2333 14.1672 16.4311 14.1667 16.6667C14.1661 16.9022 14.0861 17.1003 13.9267 17.2608C13.7672 17.4214 13.5694 17.5011 13.3333 17.5H6.66667C6.43056 17.5 6.23278 17.42 6.07333 17.26C5.91389 17.1 5.83389 16.9022 5.83333 16.6667C5.83278 16.4311 5.91278 16.2333 6.07333 16.0733C6.23389 15.9133 6.43167 15.8333 6.66667 15.8333H9.16667Z" fill="var(--fill-0, #C7C7C7)"/>
</g>
</svg>
